<?xml version="1.0" encoding="iso-8859-1"?>
<!-- Uploaded to: SVG Repo, www.svgrepo.com, Generator: SVG Repo Mixer Tools -->
<svg height="800px" width="800px" version="1.1" id="Layer_1" xmlns="http://www.w3.org/2000/svg" xmlns:xlink="http://www.w3.org/1999/xlink" 
	 viewBox="0 0 512 512" xml:space="preserve">
<g>
	<polygon style="fill:#CEE8FA;" points="497.116,299.826 497.116,421.873 318.512,421.873 271.379,360.105 318.512,299.826 	"/>
	<path style="fill:#CEE8FA;" d="M444.693,106.338l22.211,60.011H38.55l-3.971-10.728l133.156-49.281H76.563
		c-34.064-0.001-61.68,27.614-61.68,61.678l0,0c0,34.064,27.615,61.68,61.68,61.68h420.553V106.338H444.693z"/>
</g>
<path style="fill:#2D527C;" d="M76.563,244.581h420.553c8.219,0,14.884-6.665,14.884-14.884V106.338
	c0-8.219-6.665-14.884-14.884-14.884h-42.063l-29.77-80.436c-1.369-3.702-4.154-6.708-7.741-8.357
	c-3.584-1.649-7.681-1.802-11.382-0.435L250.834,59.713c-7.708,2.853-11.645,11.414-8.792,19.124
	c2.853,7.711,11.414,11.642,19.124,8.792L402.533,35.31l42.99,116.157H88.688l84.214-31.168c0.454-0.168,0.893-0.36,1.322-0.567
	c0.147-0.07,0.284-0.152,0.429-0.226c0.274-0.144,0.545-0.289,0.807-0.447c0.168-0.103,0.329-0.213,0.491-0.32
	c0.223-0.149,0.445-0.298,0.659-0.457c0.167-0.124,0.327-0.253,0.488-0.383c0.196-0.159,0.39-0.323,0.577-0.493
	c0.155-0.14,0.308-0.281,0.457-0.427c0.182-0.179,0.356-0.362,0.528-0.548c0.135-0.149,0.272-0.295,0.403-0.448
	c0.176-0.207,0.341-0.421,0.506-0.637c0.109-0.143,0.222-0.281,0.324-0.429c0.191-0.269,0.365-0.549,0.537-0.831
	c0.063-0.101,0.131-0.199,0.191-0.304c0.229-0.397,0.441-0.804,0.633-1.219c0.015-0.031,0.025-0.063,0.039-0.094
	c0.173-0.381,0.33-0.771,0.47-1.167c0.046-0.128,0.08-0.259,0.122-0.388c0.098-0.302,0.192-0.604,0.269-0.912
	c0.042-0.165,0.076-0.333,0.112-0.5c0.06-0.274,0.116-0.548,0.161-0.826c0.031-0.193,0.055-0.388,0.077-0.583
	c0.03-0.253,0.055-0.506,0.071-0.761c0.015-0.217,0.024-0.433,0.03-0.65c0.006-0.237,0.003-0.475-0.003-0.713
	c-0.006-0.231-0.013-0.461-0.03-0.694c-0.016-0.232-0.045-0.464-0.071-0.698c-0.028-0.231-0.054-0.463-0.092-0.694
	c-0.009-0.058-0.013-0.115-0.022-0.171c-0.039-0.214-0.095-0.421-0.143-0.631c-0.042-0.186-0.076-0.372-0.125-0.558
	c-0.249-0.939-0.583-1.837-0.997-2.689c-0.055-0.113-0.118-0.219-0.176-0.33c-0.155-0.301-0.316-0.597-0.49-0.884
	c-0.098-0.161-0.202-0.316-0.305-0.472c-0.147-0.223-0.296-0.444-0.455-0.656c-0.127-0.173-0.259-0.339-0.393-0.505
	c-0.15-0.186-0.307-0.369-0.466-0.548c-0.147-0.165-0.296-0.329-0.451-0.487c-0.165-0.17-0.336-0.33-0.509-0.493
	c-0.158-0.147-0.314-0.296-0.478-0.435c-0.201-0.171-0.411-0.332-0.619-0.491c-0.146-0.112-0.287-0.229-0.438-0.336
	c-0.345-0.244-0.701-0.475-1.066-0.689c-0.021-0.012-0.04-0.027-0.061-0.039c-0.396-0.231-0.805-0.441-1.222-0.634
	c-0.1-0.046-0.204-0.083-0.305-0.128c-0.314-0.137-0.631-0.269-0.956-0.385c-0.153-0.055-0.311-0.1-0.466-0.149
	c-0.272-0.088-0.546-0.173-0.825-0.244c-0.196-0.051-0.394-0.092-0.592-0.134c-0.24-0.052-0.478-0.1-0.722-0.14
	c-0.234-0.037-0.467-0.067-0.704-0.094c-0.21-0.024-0.42-0.045-0.631-0.06c-0.262-0.019-0.524-0.031-0.787-0.034
	c-0.091-0.001-0.18-0.012-0.272-0.012h-91.17c-41.137,0-74.785,32.613-76.481,73.34C0.028,165.306,0,165.824,0,166.349v267.788
	c0,42.216,34.346,76.562,76.563,76.562h420.553c8.219,0,14.884-6.665,14.884-14.884v-73.942V299.826
	c0-8.219-6.665-14.884-14.884-14.884H318.512c-4.58,0-8.903,2.108-11.725,5.715l-47.132,60.278c-0.138,0.176-0.259,0.36-0.387,0.542
	c-0.094,0.131-0.194,0.26-0.283,0.396c-0.201,0.302-0.384,0.61-0.56,0.923c-0.055,0.095-0.113,0.189-0.165,0.287
	c-0.198,0.369-0.378,0.746-0.543,1.127c-0.071,0.165-0.131,0.336-0.196,0.503c-0.097,0.25-0.192,0.5-0.275,0.753
	c-0.063,0.188-0.116,0.378-0.17,0.57c-0.071,0.25-0.137,0.5-0.194,0.753c-0.043,0.186-0.083,0.374-0.119,0.564
	c-0.055,0.293-0.098,0.589-0.135,0.884c-0.019,0.153-0.043,0.302-0.058,0.457c-0.043,0.455-0.068,0.914-0.07,1.371
	c0,0.013-0.001,0.025-0.001,0.039c0,0.068,0.009,0.135,0.01,0.205c0.006,0.378,0.024,0.758,0.057,1.134
	c0.015,0.17,0.037,0.336,0.058,0.503c0.036,0.283,0.077,0.566,0.129,0.847c0.034,0.186,0.07,0.371,0.11,0.554
	c0.06,0.265,0.13,0.527,0.202,0.789c0.051,0.177,0.095,0.356,0.152,0.53c0.103,0.319,0.222,0.631,0.345,0.944
	c0.063,0.156,0.124,0.313,0.192,0.466c0.152,0.347,0.314,0.689,0.494,1.025c0.082,0.153,0.173,0.298,0.26,0.448
	c0.14,0.241,0.281,0.482,0.435,0.716c0.101,0.155,0.21,0.304,0.317,0.455c0.098,0.137,0.186,0.278,0.289,0.412l47.132,61.769
	c2.816,3.69,7.192,5.855,11.833,5.855h163.721v44.175H76.563c-25.802,0-46.796-20.992-46.796-46.794V228.552
	C42.718,238.587,58.95,244.581,76.563,244.581z M482.233,121.221v30.242h-4.968l-11.193-30.242H482.233z M76.563,121.221h8.077
	l-43.31,16.03C49.916,127.432,62.528,121.221,76.563,121.221z M38.549,181.233h428.353h15.33v33.582H76.563
	c-21.215,0-39.178-14.192-44.895-33.582L38.549,181.233L38.549,181.233z M325.876,406.989l-24.418-32.001h30.449
	c8.219,0,14.884-6.665,14.884-14.884s-6.665-14.884-14.884-14.884h-29.995l23.856-30.51h156.465v92.279H325.876z"/>
</svg>